<svg width="500" height="500" viewBox="0 0 500 500" fill="none" xmlns="http://www.w3.org/2000/svg">
<path d="M208.568 213.264C211.384 212.24 213.645 211.387 215.352 210.704C221.24 208.229 227.043 206.011 232.76 204.048C238.563 202 244.451 200.293 250.424 198.928C251.704 198.587 253.027 198.288 254.392 198.032C255.843 197.776 257.293 198.117 258.744 199.056C259.171 199.483 258.445 200.08 256.568 200.848C254.776 201.531 252.429 202.341 249.528 203.28C246.712 204.133 243.725 205.029 240.568 205.968C237.496 206.907 234.893 207.803 232.76 208.656C228.664 210.363 224.525 212.069 220.344 213.776C216.248 215.483 212.024 217.232 207.672 219.024C206.819 221.499 205.923 223.931 204.984 226.32C204.045 228.624 203.277 230.928 202.68 233.232C200.205 241.424 197.091 249.275 193.336 256.784C188.472 266.341 183.309 275.728 177.848 284.944C172.472 294.245 166.925 303.504 161.208 312.72C159.757 314.939 158.307 317.115 156.856 319.248C155.491 321.467 154.083 323.643 152.632 325.776C151.181 327.824 149.603 329.744 147.896 331.536C146.275 333.328 144.44 334.949 142.392 336.4C140.6 337.68 138.765 338.576 136.888 339.088C135.096 339.6 133.389 339.728 131.768 339.472C130.147 339.301 128.696 338.747 127.416 337.808C126.136 336.869 125.197 335.547 124.6 333.84C124.003 332.219 123.533 330.512 123.192 328.72C122.851 326.928 122.637 325.093 122.552 323.216C122.04 304.613 127.971 286.48 140.344 268.816C145.635 261.221 151.565 254.437 158.136 248.464C164.707 242.405 171.747 236.688 179.256 231.312C182.072 229.264 184.931 227.344 187.832 225.552C190.733 223.76 193.635 221.925 196.536 220.048C197.731 219.28 198.712 218.469 199.48 217.616C200.333 216.677 200.888 215.525 201.144 214.16C201.827 210.149 202.381 206.181 202.808 202.256C203.32 198.331 203.448 194.405 203.192 190.48C203.021 189.285 202.851 188.048 202.68 186.768C202.509 185.488 202.253 184.251 201.912 183.056C200.632 178.875 198.797 176.229 196.408 175.12C194.019 174.011 190.605 173.797 186.168 174.48C184.205 174.821 182.243 175.333 180.28 176.016C178.317 176.613 176.397 177.381 174.52 178.32C169.571 180.795 164.835 183.696 160.312 187.024C155.875 190.267 151.736 194.021 147.896 198.288C143.459 203.237 139.32 208.315 135.48 213.52C131.725 218.725 128.44 224.272 125.624 230.16C124.429 232.805 123.363 235.408 122.424 237.968C121.485 240.528 121.016 243.173 121.016 245.904C121.016 246.331 120.717 246.843 120.12 247.44C119.608 247.952 119.096 248.293 118.584 248.464C118.157 248.635 117.645 248.635 117.048 248.464C116.536 248.208 116.109 247.909 115.768 247.568C115.427 247.141 115.171 246.672 115 246.16C114.744 245.648 114.701 245.093 114.872 244.496C115.128 242.789 115.384 241.04 115.64 239.248C115.896 237.456 116.365 235.707 117.048 234C121.4 223.589 126.947 214.032 133.688 205.328C140.515 196.624 148.707 188.773 158.264 181.776C162.872 178.448 167.608 175.675 172.472 173.456C177.421 171.237 182.627 169.915 188.088 169.488C193.549 169.061 198.072 169.957 201.656 172.176C205.325 174.309 207.843 177.765 209.208 182.544C209.891 185.104 210.232 187.749 210.232 190.48C210.317 193.211 210.275 195.941 210.104 198.672C209.933 200.891 209.677 203.152 209.336 205.456C209.08 207.76 208.824 210.363 208.568 213.264ZM198.328 225.808C198.243 225.723 197.987 225.723 197.56 225.808C197.219 225.808 196.792 225.936 196.28 226.192C195.853 226.363 195.427 226.576 195 226.832C194.573 227.003 194.275 227.131 194.104 227.216C186.339 232.251 178.872 237.627 171.704 243.344C164.536 249.061 158.008 255.589 152.12 262.928C145.72 270.949 140.472 279.184 136.376 287.632C132.28 296.165 129.763 305.125 128.824 314.512C128.397 317.499 128.227 320.4 128.312 323.216C128.483 326.032 128.952 328.763 129.72 331.408C130.573 333.712 131.896 334.992 133.688 335.248C135.565 335.504 137.528 334.565 139.576 332.432C141.539 330.213 143.416 327.952 145.208 325.648C147.085 323.429 148.877 321.083 150.584 318.608C153.315 314.427 155.96 310.245 158.52 306.064C161.165 301.883 163.768 297.616 166.328 293.264C171.192 285.072 175.928 276.88 180.536 268.688C185.144 260.496 189.197 252.091 192.696 243.472C193.805 240.741 194.787 237.968 195.64 235.152C196.493 232.251 197.389 229.136 198.328 225.808ZM249.514 251.28C248.149 255.973 246.271 259.557 243.882 262.032C241.578 264.507 238.378 266.427 234.282 267.792C231.295 268.731 228.479 268.517 225.834 267.152C223.274 265.701 221.525 263.483 220.586 260.496C219.647 257.936 219.903 255.589 221.354 253.456C222.89 250.469 222.975 247.696 221.61 245.136C221.525 244.539 221.738 244.069 222.25 243.728C222.677 243.301 223.274 243.045 224.042 242.96C224.81 242.789 225.578 242.704 226.346 242.704C227.199 242.704 227.925 242.704 228.522 242.704C230.57 242.875 232.618 243.088 234.666 243.344C236.714 243.515 238.719 243.941 240.682 244.624C243.669 245.563 246.655 246.117 249.642 246.288C252.629 246.459 255.615 246.373 258.602 246.032C260.394 245.861 262.058 245.691 263.594 245.52C265.13 245.264 266.965 244.88 269.098 244.368C269.525 244.283 270.079 244.155 270.762 243.984C271.445 243.813 272.127 243.685 272.81 243.6C273.493 243.515 274.09 243.515 274.602 243.6C275.114 243.685 275.413 243.899 275.498 244.24C275.839 245.093 275.626 245.819 274.858 246.416C274.175 246.928 273.663 247.269 273.322 247.44C272.127 247.867 271.061 248.251 270.122 248.592C269.183 248.848 268.287 249.104 267.434 249.36C266.581 249.531 265.685 249.744 264.746 250C263.807 250.171 262.698 250.341 261.418 250.512C259.967 250.683 258.047 250.853 255.658 251.024C253.354 251.195 251.306 251.28 249.514 251.28ZM231.21 250.256C230.442 250.768 229.759 251.451 229.162 252.304C228.65 253.157 228.223 254.139 227.882 255.248C227.541 256.272 227.327 257.381 227.242 258.576C227.242 259.685 227.37 260.795 227.626 261.904C229.333 262.843 230.783 263.056 231.978 262.544C233.258 261.947 234.495 261.307 235.69 260.624C237.397 259.685 238.634 258.576 239.402 257.296C240.255 255.931 241.023 254.139 241.706 251.92C239.487 250.896 237.397 250.256 235.434 250C233.557 249.744 232.149 249.829 231.21 250.256ZM302.381 226.704C304.856 226.021 306.648 225.253 307.757 224.4C308.952 223.547 310.317 222.608 311.853 221.584C313.048 220.816 314.2 220.091 315.309 219.408C316.504 218.64 317.698 217.915 318.893 217.232C319.917 216.635 321.069 216.549 322.349 216.976C323.629 217.317 324.525 217.957 325.037 218.896C325.549 219.749 325.848 220.731 325.933 221.84C326.018 222.949 325.89 224.059 325.549 225.168C325.293 226.277 324.824 227.344 324.141 228.368C323.544 229.392 322.818 230.203 321.965 230.8C320.344 231.909 318.68 232.805 316.973 233.488C315.352 234.171 313.602 234.555 311.725 234.64C308.482 234.725 305.581 235.536 303.021 237.072C300.546 238.523 298.2 240.443 295.981 242.832C288.301 251.28 282.413 260.624 278.317 270.864C277.634 272.4 277.122 273.979 276.781 275.6C276.525 277.221 276.312 278.843 276.141 280.464C275.97 283.792 276.568 286.395 277.933 288.272C279.384 290.235 281.645 291.685 284.717 292.624C287.704 293.563 290.69 294.075 293.677 294.16C296.749 294.245 299.864 293.989 303.021 293.392C307.117 292.624 310.616 291.984 313.517 291.472C316.504 290.96 319.32 290.32 321.965 289.552C324.61 288.869 327.341 288.016 330.157 286.992C332.973 285.968 336.301 284.56 340.141 282.768C341.848 282 343.554 281.275 345.261 280.592C346.968 279.909 348.674 279.227 350.381 278.544C350.808 278.373 351.405 278.245 352.173 278.16C353.026 277.989 353.88 278.117 354.733 278.544C355.245 278.885 355.373 279.269 355.117 279.696C354.861 280.037 354.477 280.421 353.965 280.848C353.453 281.189 352.898 281.531 352.301 281.872C351.704 282.128 351.277 282.341 351.021 282.512C346.328 285.072 342.146 287.248 338.477 289.04C334.808 290.832 331.181 292.368 327.597 293.648C324.013 294.928 320.216 296.037 316.205 296.976C312.28 297.915 307.757 298.811 302.637 299.664C299.224 300.261 295.81 300.517 292.397 300.432C289.069 300.432 285.784 299.792 282.541 298.512C277.592 296.464 274.05 293.349 271.917 289.168C269.869 284.987 269.57 280.123 271.021 274.576C272.472 269.371 274.477 264.464 277.037 259.856C279.597 255.163 282.541 250.64 285.869 246.288C287.576 244.069 289.368 241.936 291.245 239.888C293.122 237.84 294.957 235.707 296.749 233.488C296.408 233.061 296.109 232.677 295.853 232.336C295.682 231.995 295.469 231.653 295.213 231.312C292.482 227.728 291.074 224.4 290.989 221.328C290.904 218.171 292.226 214.544 294.957 210.448C299.48 203.877 304.941 197.947 311.341 192.656C318.253 186.768 325.421 181.392 332.845 176.528C340.354 171.579 348.162 167.141 356.269 163.216C361.73 160.571 367.106 158.437 372.397 156.816C373.933 156.304 375.512 156.005 377.133 155.92C378.84 155.835 380.504 155.792 382.125 155.792C385.368 155.707 388.098 157.029 390.317 159.76C391.426 161.211 392.152 162.747 392.493 164.368C392.92 165.989 392.621 167.696 391.597 169.488C390.829 171.024 390.018 172.517 389.165 173.968C388.312 175.419 387.33 176.784 386.221 178.064C382.125 183.099 377.73 187.749 373.037 192.016C368.429 196.197 363.565 200.293 358.445 204.304C358.274 204.475 358.018 204.688 357.677 204.944C357.421 205.115 357.165 205.2 356.909 205.2C356.397 205.285 355.8 205.328 355.117 205.328C354.52 205.243 354.136 205.072 353.965 204.816C353.709 204.389 353.624 203.877 353.709 203.28C353.794 202.597 353.922 202.043 354.093 201.616C354.434 201.104 354.861 200.677 355.373 200.336C355.885 199.909 356.354 199.483 356.781 199.056C358.744 197.435 360.664 195.856 362.541 194.32C364.418 192.699 366.296 191.077 368.173 189.456C371.245 186.811 374.146 184.037 376.877 181.136C379.693 178.149 382.253 174.992 384.557 171.664C386.861 168.251 387.501 165.605 386.477 163.728C385.453 161.851 382.936 161.04 378.925 161.296C377.218 161.467 375.469 161.765 373.677 162.192C371.885 162.533 370.136 163.045 368.429 163.728C357.165 168.336 346.498 173.925 336.429 180.496C326.445 186.981 317.101 194.619 308.397 203.408C306.434 205.371 304.642 207.504 303.021 209.808C301.485 212.112 299.906 214.373 298.285 216.592C297.858 217.275 297.56 218.085 297.389 219.024C297.218 219.963 297.09 220.901 297.005 221.84C296.834 223.035 297.133 224.101 297.901 225.04C298.413 225.723 299.053 226.235 299.821 226.576C300.674 226.832 301.528 226.875 302.381 226.704Z" fill="white"/>
</svg>
